<svg width="220" height="94" viewBox="0 0 220 94" fill="none" xmlns="http://www.w3.org/2000/svg">
<path d="M7.82013e-05 7.62939e-06H12.4161C16.4267 7.62939e-06 19.4987 1.06667 21.6321 3.2C23.7654 5.33334 24.8321 8.40534 24.8321 12.416V80.896C24.8321 84.9067 23.7654 87.9787 21.6321 90.112C19.4987 92.2453 16.4267 93.312 12.4161 93.312H7.82013e-05V7.62939e-06ZM12.4161 81.92C13.0987 81.92 13.4401 81.5787 13.4401 80.896V12.416C13.4401 11.7333 13.0987 11.392 12.4161 11.392H11.3921V81.92H12.4161ZM41.0411 93.312C37.0304 93.312 33.9584 92.2453 31.8251 90.112C29.6917 87.9787 28.6251 84.9067 28.6251 80.896V12.544C28.6251 8.53334 29.6917 5.46134 31.8251 3.32801C33.9584 1.19467 37.0304 0.128006 41.0411 0.128006C45.0517 0.128006 48.1237 1.19467 50.2571 3.32801C52.3904 5.46134 53.4571 8.53334 53.4571 12.544V38.272H42.0651V12.544C42.0651 11.8613 41.7237 11.52 41.0411 11.52C40.3584 11.52 40.0171 11.8613 40.0171 12.544V40.32H53.4571V51.712H40.0171V80.896C40.0171 81.5787 40.3584 81.92 41.0411 81.92C41.7237 81.92 42.0651 81.5787 42.0651 80.896V53.76H53.4571V80.896C53.4571 84.9067 52.3904 87.9787 50.2571 90.112C48.1237 92.2453 45.0517 93.312 41.0411 93.312ZM69.6661 93.312C65.6554 93.312 62.5834 92.2453 60.4501 90.112C58.3167 87.9787 57.2501 84.9067 57.2501 80.896V57.088H68.6421V80.896C68.6421 81.5787 68.9834 81.92 69.6661 81.92C70.3487 81.92 70.6901 81.5787 70.6901 80.896V56.576C70.6901 56.1493 70.5194 55.808 70.1781 55.552C69.9221 55.2107 69.5807 55.04 69.1541 55.04H68.5141C64.8447 55.04 62.0287 54.1013 60.0661 52.224C58.1887 50.2613 57.2501 47.4453 57.2501 43.776V12.416C57.2501 8.40534 58.3167 5.33334 60.4501 3.2C62.5834 1.06667 65.6554 7.62939e-06 69.6661 7.62939e-06C73.6767 7.62939e-06 76.7487 1.06667 78.8821 3.2C81.0154 5.33334 82.0821 8.40534 82.0821 12.416V41.984H70.6901V12.416C70.6901 11.7333 70.3487 11.392 69.6661 11.392C68.9834 11.392 68.6421 11.7333 68.6421 12.416V42.496C68.6421 42.9227 68.7701 43.3067 69.0261 43.648C69.3674 43.904 69.7514 44.032 70.1781 44.032H70.8181C74.4874 44.032 77.2607 45.0133 79.1381 46.976C81.1007 48.8533 82.0821 51.6267 82.0821 55.296V80.896C82.0821 84.9067 81.0154 87.9787 78.8821 90.112C76.7487 92.2453 73.6767 93.312 69.6661 93.312ZM99.3151 93.312V51.712L97.2671 51.584V93.312H85.8751V12.544C85.8751 8.53334 86.9417 5.46134 89.0751 3.32801C91.2084 1.19467 94.2804 0.128006 98.2911 0.128006C102.302 0.128006 105.374 1.19467 107.507 3.32801C109.64 5.46134 110.707 8.53334 110.707 12.544V93.312H99.3151ZM99.3151 38.784V12.544C99.3151 11.8613 98.9737 11.52 98.2911 11.52C97.6084 11.52 97.2671 11.8613 97.2671 12.544V38.784H99.3151ZM114.5 0.128006H125.892V93.312H114.5V0.128006ZM143.19 11.392H141.142V93.312H129.75V12.416C129.75 8.40534 130.774 5.33334 132.822 3.2C134.955 1.06667 137.985 7.62939e-06 141.91 7.62939e-06C145.835 7.62939e-06 148.822 1.06667 150.87 3.2C153.003 5.33334 154.07 8.40534 154.07 12.416V81.92H156.118V7.62939e-06H167.51V93.312H143.19V11.392ZM175.599 11.392H171.375V7.62939e-06H191.215V11.392H186.991V93.312H175.599V11.392ZM208.44 93.312V51.712L206.392 51.584V93.312H195V12.544C195 8.53334 196.067 5.46134 198.2 3.32801C200.333 1.19467 203.405 0.128006 207.416 0.128006C211.427 0.128006 214.499 1.19467 216.632 3.32801C218.765 5.46134 219.832 8.53334 219.832 12.544V93.312H208.44ZM208.44 38.784V12.544C208.44 11.8613 208.099 11.52 207.416 11.52C206.733 11.52 206.392 11.8613 206.392 12.544V38.784H208.44Z" fill="white"/>
</svg>
